<mxfile host="app.diagrams.net" modified="2023-10-03T04:56:13.902Z" agent="Mozilla/5.0 (Windows NT 10.0; Win64; x64) AppleWebKit/537.36 (KHTML, like Gecko) Chrome/117.0.0.0 Safari/537.36 Edg/117.0.2045.47" etag="is0o9RmHT6OJTB8e268h" version="21.7.5" type="device">
  <diagram name="Page-1" id="WvcGP1ipIRWE5cDf1ju1">
    <mxGraphModel dx="970" dy="708" grid="1" gridSize="10" guides="1" tooltips="1" connect="1" arrows="1" fold="1" page="1" pageScale="1" pageWidth="850" pageHeight="1100" math="0" shadow="0">
      <root>
        <mxCell id="0" />
        <mxCell id="1" parent="0" />
        <mxCell id="svGi4HDHdJdUMWxCtFlR-4" value="" style="rounded=0;whiteSpace=wrap;html=1;" vertex="1" parent="1">
          <mxGeometry x="40" y="240" width="120" height="140" as="geometry" />
        </mxCell>
        <mxCell id="svGi4HDHdJdUMWxCtFlR-1" value="" style="shape=image;html=1;verticalAlign=top;verticalLabelPosition=bottom;labelBackgroundColor=#ffffff;imageAspect=0;aspect=fixed;image=https://cdn1.iconfinder.com/data/icons/bootstrap-vol-3/16/file-text-128.png" vertex="1" parent="1">
          <mxGeometry x="60" y="260" width="40" height="40" as="geometry" />
        </mxCell>
        <mxCell id="svGi4HDHdJdUMWxCtFlR-3" value="" style="shape=image;html=1;verticalAlign=top;verticalLabelPosition=bottom;labelBackgroundColor=#ffffff;imageAspect=0;aspect=fixed;image=https://cdn1.iconfinder.com/data/icons/bootstrap-vol-3/16/file-text-128.png" vertex="1" parent="1">
          <mxGeometry x="105" y="310" width="40" height="40" as="geometry" />
        </mxCell>
        <mxCell id="svGi4HDHdJdUMWxCtFlR-5" value="Source Files" style="text;html=1;strokeColor=none;fillColor=none;align=center;verticalAlign=middle;whiteSpace=wrap;rounded=0;" vertex="1" parent="1">
          <mxGeometry x="45" y="350" width="100" height="30" as="geometry" />
        </mxCell>
        <mxCell id="svGi4HDHdJdUMWxCtFlR-6" value="MudPiler Project" style="text;html=1;strokeColor=none;fillColor=none;align=center;verticalAlign=middle;whiteSpace=wrap;rounded=0;fontStyle=1" vertex="1" parent="1">
          <mxGeometry x="50" y="210" width="100" height="30" as="geometry" />
        </mxCell>
        <mxCell id="svGi4HDHdJdUMWxCtFlR-7" value="" style="endArrow=classic;html=1;rounded=0;" edge="1" parent="1">
          <mxGeometry width="50" height="50" relative="1" as="geometry">
            <mxPoint x="180" y="310" as="sourcePoint" />
            <mxPoint x="240" y="310" as="targetPoint" />
          </mxGeometry>
        </mxCell>
        <mxCell id="svGi4HDHdJdUMWxCtFlR-8" value="" style="sketch=0;outlineConnect=0;fontColor=#232F3E;gradientColor=none;fillColor=#ED7100;strokeColor=none;dashed=0;verticalLabelPosition=bottom;verticalAlign=top;align=center;html=1;fontSize=12;fontStyle=0;aspect=fixed;pointerEvents=1;shape=mxgraph.aws4.container_registry_image;" vertex="1" parent="1">
          <mxGeometry x="107" y="262" width="35" height="35" as="geometry" />
        </mxCell>
        <mxCell id="svGi4HDHdJdUMWxCtFlR-9" value="" style="sketch=0;pointerEvents=1;shadow=0;dashed=0;html=1;strokeColor=none;fillColor=#505050;labelPosition=center;verticalLabelPosition=bottom;verticalAlign=top;outlineConnect=0;align=center;shape=mxgraph.office.concepts.sound_file;" vertex="1" parent="1">
          <mxGeometry x="65" y="310" width="30" height="40" as="geometry" />
        </mxCell>
        <mxCell id="svGi4HDHdJdUMWxCtFlR-11" value="&lt;font style=&quot;font-size: 14px;&quot;&gt;MudPiler Project Compiler CLI&lt;/font&gt;" style="rounded=0;whiteSpace=wrap;html=1;" vertex="1" parent="1">
          <mxGeometry x="250" y="280" width="120" height="60" as="geometry" />
        </mxCell>
        <mxCell id="svGi4HDHdJdUMWxCtFlR-13" value="" style="outlineConnect=0;dashed=0;verticalLabelPosition=bottom;verticalAlign=top;align=center;html=1;shape=mxgraph.aws3.resources;fillColor=#759C3E;gradientColor=none;" vertex="1" parent="1">
          <mxGeometry x="460.5" y="200" width="52.5" height="54.75" as="geometry" />
        </mxCell>
        <mxCell id="svGi4HDHdJdUMWxCtFlR-14" value="" style="shape=image;html=1;verticalAlign=top;verticalLabelPosition=bottom;labelBackgroundColor=#ffffff;imageAspect=0;aspect=fixed;image=https://cdn1.iconfinder.com/data/icons/hawcons/32/699751-icon-105-document-file-exe-128.png" vertex="1" parent="1">
          <mxGeometry x="460" y="370" width="50" height="50" as="geometry" />
        </mxCell>
        <mxCell id="svGi4HDHdJdUMWxCtFlR-15" value="" style="endArrow=classic;html=1;rounded=0;" edge="1" parent="1">
          <mxGeometry width="50" height="50" relative="1" as="geometry">
            <mxPoint x="380" y="330" as="sourcePoint" />
            <mxPoint x="450" y="360" as="targetPoint" />
          </mxGeometry>
        </mxCell>
        <mxCell id="svGi4HDHdJdUMWxCtFlR-16" value="" style="endArrow=classic;html=1;rounded=0;exitX=1.078;exitY=0.272;exitDx=0;exitDy=0;exitPerimeter=0;" edge="1" parent="1" source="svGi4HDHdJdUMWxCtFlR-11">
          <mxGeometry width="50" height="50" relative="1" as="geometry">
            <mxPoint x="390" y="340" as="sourcePoint" />
            <mxPoint x="440" y="260" as="targetPoint" />
          </mxGeometry>
        </mxCell>
        <mxCell id="svGi4HDHdJdUMWxCtFlR-17" value="" style="shape=image;html=1;verticalAlign=top;verticalLabelPosition=bottom;labelBackgroundColor=#ffffff;imageAspect=0;aspect=fixed;image=https://cdn1.iconfinder.com/data/icons/ionicons-fill-vol-2/512/logo-javascript-128.png" vertex="1" parent="1">
          <mxGeometry x="602.5" y="200" width="50" height="50" as="geometry" />
        </mxCell>
        <mxCell id="svGi4HDHdJdUMWxCtFlR-18" value="" style="verticalLabelPosition=bottom;html=1;verticalAlign=top;align=center;strokeColor=none;fillColor=#00BEF2;shape=mxgraph.azure.azure_website;pointerEvents=1;" vertex="1" parent="1">
          <mxGeometry x="602.5" y="370" width="50" height="50" as="geometry" />
        </mxCell>
        <mxCell id="svGi4HDHdJdUMWxCtFlR-19" value="Open Source Client Template&lt;br&gt;" style="text;html=1;strokeColor=none;fillColor=none;align=center;verticalAlign=middle;whiteSpace=wrap;rounded=0;" vertex="1" parent="1">
          <mxGeometry x="580" y="257.62" width="95" height="30" as="geometry" />
        </mxCell>
        <mxCell id="svGi4HDHdJdUMWxCtFlR-20" value="Open Source Server" style="text;html=1;strokeColor=none;fillColor=none;align=center;verticalAlign=middle;whiteSpace=wrap;rounded=0;" vertex="1" parent="1">
          <mxGeometry x="580" y="430" width="95" height="30" as="geometry" />
        </mxCell>
        <mxCell id="svGi4HDHdJdUMWxCtFlR-21" value="&lt;b&gt;&lt;font style=&quot;font-size: 30px;&quot;&gt;+&lt;/font&gt;&lt;/b&gt;" style="text;html=1;align=center;verticalAlign=middle;resizable=0;points=[];autosize=1;strokeColor=none;fillColor=none;" vertex="1" parent="1">
          <mxGeometry x="530" y="204.75" width="40" height="50" as="geometry" />
        </mxCell>
        <mxCell id="svGi4HDHdJdUMWxCtFlR-22" value="&lt;b&gt;&lt;font style=&quot;font-size: 30px;&quot;&gt;+&lt;/font&gt;&lt;/b&gt;" style="text;html=1;align=center;verticalAlign=middle;resizable=0;points=[];autosize=1;strokeColor=none;fillColor=none;" vertex="1" parent="1">
          <mxGeometry x="530" y="370" width="40" height="50" as="geometry" />
        </mxCell>
        <mxCell id="svGi4HDHdJdUMWxCtFlR-23" value="Compiled Game Logic" style="text;html=1;align=center;verticalAlign=middle;resizable=0;points=[];autosize=1;strokeColor=none;fillColor=none;" vertex="1" parent="1">
          <mxGeometry x="410" y="430" width="140" height="30" as="geometry" />
        </mxCell>
        <mxCell id="svGi4HDHdJdUMWxCtFlR-24" value="Compiled Asset Pack" style="text;html=1;align=center;verticalAlign=middle;resizable=0;points=[];autosize=1;strokeColor=none;fillColor=none;" vertex="1" parent="1">
          <mxGeometry x="425" y="265" width="140" height="30" as="geometry" />
        </mxCell>
      </root>
    </mxGraphModel>
  </diagram>
</mxfile>
